<?xml version="1.0" encoding="UTF-8"?>
<svg version="1.1" xmlns="http://www.w3.org/2000/svg" width="220" height="220">
<path d="M0 0 C72.6 0 145.2 0 220 0 C220 72.6 220 145.2 220 220 C147.4 220 74.8 220 0 220 C0 147.4 0 74.8 0 0 Z " fill="#010101" transform="translate(0,0)"/>
<path d="M0 0 C3 1 3 1 4.11914062 2.63891602 C4.46138672 3.33686279 4.80363281 4.03480957 5.15625 4.75390625 C5.53910156 5.52669922 5.92195313 6.29949219 6.31640625 7.09570312 C6.70699219 7.90974609 7.09757812 8.72378906 7.5 9.5625 C8.08587891 10.74295898 8.08587891 10.74295898 8.68359375 11.94726562 C10.50128792 15.65915625 12.17290733 19.34847143 13.5625 23.2421875 C14.80386916 26.67433384 16.44123924 29.5330516 18.5 32.5625 C20.46407767 35.54559704 22.30506119 38.36489541 23.625 41.6875 C24.73151264 44.35318953 25.81601856 46.3682228 27.375 48.75 C35 60.56990881 35 60.56990881 35 66 C35.66 66 36.32 66 37 66 C37.79423861 67.56119422 38.58527123 69.12401964 39.375 70.6875 C39.81585938 71.55761719 40.25671875 72.42773438 40.7109375 73.32421875 C42 76 42 76 43.06640625 78.7109375 C43.89801635 81.06339806 43.89801635 81.06339806 45.5625 82.9375 C47.39268105 85.56341194 47.64265878 87.85539725 48 91 C48.66 91 49.32 91 50 91 C50.70492893 92.21925475 51.38825901 93.4510106 52.0625 94.6875 C52.44535156 95.37199219 52.82820313 96.05648437 53.22265625 96.76171875 C54.22872768 99.65859778 53.93453475 101.09009797 53 104 C51.609375 106.5234375 51.609375 106.5234375 49.75 109.375 C45.77765356 115.60647874 42.11921686 121.99546078 38.5 128.4375 C37.93539062 129.44232422 37.37078125 130.44714844 36.7890625 131.48242188 C35.68790731 133.4427342 34.58698744 135.40317874 33.48632812 137.36376953 C31.59719366 140.71443871 29.67497056 144.04480094 27.75 147.375 C24.52595948 152.99346391 21.50716936 158.70308084 18.51269531 164.44555664 C15.28464791 170.58289223 11.79509663 176.5474669 8.18603516 182.46801758 C7.583479 183.4680481 7.583479 183.4680481 6.96875 184.48828125 C6.61232422 185.07134033 6.25589844 185.65439941 5.88867188 186.25512695 C4.89815064 188.0069079 4.89815064 188.0069079 4.56445312 190.15698242 C4.37818359 190.76517822 4.19191406 191.37337402 4 192 C3.01 192.33 2.02 192.66 1 193 C0.82146505 179.77097633 0.65606163 166.54180778 0.5 153.3125 C0.48812275 152.30625076 0.4762455 151.30000153 0.46400833 150.26325989 C0.05281138 115.09168478 -0.08936309 79.92386028 -0.0625 44.75 C-0.06164398 43.62101414 -0.06078796 42.49202827 -0.05990601 41.32883072 C-0.04867045 27.55253712 -0.02883186 13.77626772 0 0 Z " fill="#A42389" transform="translate(110,12)"/>
<path d="M0 0 C0.93423645 3.01031744 1.04449911 3.86650268 0 7 C-0.22325814 9.05893621 -0.40705759 11.12233653 -0.5625 13.1875 C-0.64628906 14.27417969 -0.73007813 15.36085938 -0.81640625 16.48046875 C-0.90728516 17.72763672 -0.90728516 17.72763672 -1 19 C-1.66 19 -2.32 19 -3 19 C-3.03758423 19.88522339 -3.03758423 19.88522339 -3.07592773 20.78833008 C-3.19200052 23.46326814 -3.31467572 26.1378638 -3.4375 28.8125 C-3.47681641 29.74126953 -3.51613281 30.67003906 -3.55664062 31.62695312 C-3.61948242 32.9659668 -3.61948242 32.9659668 -3.68359375 34.33203125 C-3.72025146 35.15421143 -3.75690918 35.9763916 -3.79467773 36.82348633 C-4 39 -4 39 -5 42 C-5.15476442 43.91449317 -5.27479954 45.83187696 -5.375 47.75 C-5.90602389 55.32762664 -7.43943889 62.57937267 -9 70 C-11.3018187 81.73366118 -11.36143013 90.9982187 -8.8515625 102.71484375 C-7.87999778 107.40708467 -7.21349713 112.12922202 -6.5625 116.875 C-5.48824615 124.6622733 -4.31857475 132.42742522 -3.0625 140.1875 C-1.60841895 149.20576856 -0.16129555 158.22491996 1.25 167.25 C1.42523193 168.35110107 1.60046387 169.45220215 1.78100586 170.58666992 C1.94093018 171.6151001 2.10085449 172.64353027 2.265625 173.703125 C2.47880371 175.05905762 2.47880371 175.05905762 2.69628906 176.44238281 C2.99857855 178.98802968 3.05419181 181.43914865 3 184 C0.66173279 181.84335398 -0.85832461 179.73500276 -2.375 176.9453125 C-2.80296875 176.16542969 -3.2309375 175.38554687 -3.671875 174.58203125 C-4.11015625 173.77121094 -4.5484375 172.96039063 -5 172.125 C-5.87426576 170.52303657 -6.74924698 168.92146336 -7.625 167.3203125 C-8.03363281 166.56911133 -8.44226563 165.81791016 -8.86328125 165.04394531 C-9.80225437 163.35556838 -10.79998946 161.70001713 -11.8125 160.0546875 C-13 158 -13 158 -13 156 C-13.66 156 -14.32 156 -15 156 C-15.38800781 155.03707031 -15.77601562 154.07414063 -16.17578125 153.08203125 C-18.53945277 147.56401856 -21.61539703 142.43594706 -24.59179688 137.23242188 C-25.24825195 136.07129883 -25.24825195 136.07129883 -25.91796875 134.88671875 C-26.31781982 134.18764404 -26.7176709 133.48856934 -27.12963867 132.76831055 C-28 131 -28 131 -28 129 C-28.66 129 -29.32 129 -30 129 C-30.23074219 128.443125 -30.46148437 127.88625 -30.69921875 127.3125 C-32.77902025 122.4459289 -35.09790279 118.02571723 -38.046875 113.62890625 C-39 112 -39 112 -39 110 C-39.66 110 -40.32 110 -41 110 C-41.99 107.03 -42.98 104.06 -44 101 C-44.66 101 -45.32 101 -46 101 C-50.07877462 93.9452954 -50.07877462 93.9452954 -49.75 90 C-49.37875 89.01 -49.37875 89.01 -49 88 C-48.34 88 -47.68 88 -47 88 C-46.7525 87.195625 -46.505 86.39125 -46.25 85.5625 C-44.4968485 80.56601823 -42.36815184 75.73630368 -40 71 C-39.34 71 -38.68 71 -38 71 C-37.7525 70.195625 -37.505 69.39125 -37.25 68.5625 C-34.50505879 60.73941755 -30.75800819 53.37740133 -27 46 C-26.34 46 -25.68 46 -25 46 C-24.896875 45.278125 -24.79375 44.55625 -24.6875 43.8125 C-23.92875343 40.70853676 -22.677335 38.70954115 -21 36 C-19.93762134 33.68982754 -18.97517849 31.34929363 -18 29 C-17.67 28.34 -17.34 27.68 -17 27 C-16.34 27 -15.68 27 -15 27 C-14.71125 26.071875 -14.4225 25.14375 -14.125 24.1875 C-13 21 -13 21 -11 18 C-10.34 18 -9.68 18 -9 18 C-8.79375 17.05125 -8.5875 16.1025 -8.375 15.125 C-6.90314992 9.88220554 -3.87795249 3.87795249 0 0 Z " fill="#70207F" transform="translate(106,21)"/>
<path d="M0 0 C3 1 3 1 4.71875 3.87890625 C5.3236643 5.10130929 5.91682479 6.32957779 6.5 7.5625 C6.81259766 8.20292236 7.12519531 8.84334473 7.44726562 9.50317383 C8.97731927 12.68045101 10.38075447 15.84375397 11.5 19.1875 C13.04700668 23.69315695 15.7624951 27.44235657 18.3671875 31.3984375 C19.68209489 33.49348133 20.71720322 35.40235638 21.625 37.6875 C22.73151264 40.35318953 23.81601856 42.3682228 25.375 44.75 C33 56.56990881 33 56.56990881 33 62 C33.66 62 34.32 62 35 62 C35.79423861 63.56119422 36.58527123 65.12401964 37.375 66.6875 C37.81585938 67.55761719 38.25671875 68.42773438 38.7109375 69.32421875 C40 72 40 72 41.06640625 74.7109375 C41.89801635 77.06339806 41.89801635 77.06339806 43.5625 78.9375 C45.39268105 81.56341194 45.64265878 83.85539725 46 87 C46.66 87 47.32 87 48 87 C50.09350689 90.4019487 50.17942163 93.05272412 50 97 C43.96770382 96.36565139 37.98607973 95.60189496 32 94.625 C30.88625 94.45484375 30.88625 94.45484375 29.75 94.28125 C25.77257638 93.63215656 22.03571487 92.74832609 18.21875 91.44287109 C17.42404297 91.17268158 16.62933594 90.90249207 15.81054688 90.62411499 C14.91432617 90.31517807 14.91432617 90.31517807 14 90 C11.41444785 76.5075685 8.86300906 63.00942509 6.39013672 49.49584961 C6.04500692 47.61431974 5.69798293 45.73313639 5.34912109 43.85229492 C-0.44932621 12.58113378 -0.44932621 12.58113378 0 0 Z " fill="#D359A6" transform="translate(112,16)"/>
<path d="M0 0 C0.66 0.33 1.32 0.66 2 1 C1.99666908 2.59489006 1.99666908 2.59489006 1.99327087 4.22200012 C1.96532315 18.08549089 1.94800175 31.94898531 1.9375 45.8125 C1.93664398 46.93464653 1.93578796 48.05679306 1.93490601 49.21294403 C1.90338448 96.10195541 2.32395369 142.97993772 2.96203613 189.86416626 C2.98679588 191.90933345 3 193.95468294 3 196 C1.35 195.67 -0.3 195.34 -2 195 C-1.80277344 194.236875 -1.60554688 193.47375 -1.40234375 192.6875 C-0.84699888 187.59773735 -1.71444723 183.02615974 -2.5625 178 C-2.74159912 176.88931152 -2.92069824 175.77862305 -3.10522461 174.63427734 C-3.50670288 172.14460706 -3.91196057 169.6555443 -4.3203125 167.16699219 C-5.46885097 160.15426519 -6.56457101 153.13304919 -7.67004395 146.11343384 C-8.06093849 143.63490104 -8.45356035 141.15664761 -8.84667969 138.6784668 C-10.33712739 129.27440368 -11.80610209 119.86818498 -13.15063477 110.44189453 C-13.57715682 107.50483989 -14.05870077 104.8238977 -15 102 C-15.61766114 94.38703084 -14.39152632 87.03539886 -13.0625 79.5625 C-12.88009766 78.48806641 -12.69769531 77.41363281 -12.50976562 76.30664062 C-11.16071429 68.48214286 -11.16071429 68.48214286 -10 65 C-9.79923749 62.8362263 -9.6367686 60.66875922 -9.5 58.5 C-9.28318695 55.06196442 -9.09057732 52.27173195 -8 49 C-7.78816292 47.44821071 -7.61380063 45.89111328 -7.46484375 44.33203125 C-7.37783203 43.43935547 -7.29082031 42.54667969 -7.20117188 41.62695312 C-7.0706543 40.23379883 -7.0706543 40.23379883 -6.9375 38.8125 C-6.84662109 37.87212891 -6.75574219 36.93175781 -6.66210938 35.96289062 C-6.43828717 33.6422078 -6.21770754 31.32126311 -6 29 C-5.34 29 -4.68 29 -4 29 C-4.01160156 28.20335938 -4.02320312 27.40671875 -4.03515625 26.5859375 C-4.12478032 16.06151142 -4.12478032 16.06151142 -3 11 C-7.28935105 17.79970137 -7.28935105 17.79970137 -10.6875 25.0625 C-11.120625 26.031875 -11.55375 27.00125 -12 28 C-12.99 28.33 -13.98 28.66 -15 29 C-13.39369175 24.75707468 -11.4231838 20.72974893 -9.375 16.6875 C-9.05015625 16.04232422 -8.7253125 15.39714844 -8.390625 14.73242188 C-7.59558044 13.15402459 -6.79804366 11.57688306 -6 10 C-5.34 10 -4.68 10 -4 10 C-3.34 7.36 -2.68 4.72 -2 2 C-1.34 2 -0.68 2 0 2 C0 1.34 0 0.68 0 0 Z " fill="#210E42" transform="translate(109,11)"/>
<path d="M0 0 C0.93423645 3.01031744 1.04449911 3.86650268 0 7 C-0.22325814 9.05893621 -0.40705759 11.12233653 -0.5625 13.1875 C-0.64628906 14.27417969 -0.73007813 15.36085938 -0.81640625 16.48046875 C-0.90728516 17.72763672 -0.90728516 17.72763672 -1 19 C-1.66 19 -2.32 19 -3 19 C-3.03758423 19.88522339 -3.03758423 19.88522339 -3.07592773 20.78833008 C-3.19200052 23.46326814 -3.31467572 26.1378638 -3.4375 28.8125 C-3.47681641 29.74126953 -3.51613281 30.67003906 -3.55664062 31.62695312 C-3.61948242 32.9659668 -3.61948242 32.9659668 -3.68359375 34.33203125 C-3.72025146 35.15421143 -3.75690918 35.9763916 -3.79467773 36.82348633 C-4 39 -4 39 -5 42 C-5.15476442 43.91449317 -5.27479954 45.83187696 -5.375 47.75 C-5.81984753 54.17158933 -6.96601851 60.29627505 -8.30078125 66.5859375 C-9.07991036 70.39017683 -9.60609824 74.13976273 -10 78 C-10.66 78 -11.32 78 -12 78 C-12.33 80.64 -12.66 83.28 -13 86 C-16.85801706 86.72005084 -20.71746701 87.43180871 -24.57836914 88.13623047 C-26.53025012 88.49408732 -28.4809589 88.85831893 -30.43164062 89.22265625 C-32.29272461 89.56103516 -32.29272461 89.56103516 -34.19140625 89.90625 C-35.89598999 90.22045898 -35.89598999 90.22045898 -37.63500977 90.54101562 C-41.1311044 91.01788263 -44.47599077 91.07835485 -48 91 C-47.52147263 87.05214918 -46.09550219 84.29555838 -44.0546875 80.9140625 C-42.30930842 77.74652269 -41.19580526 74.40804499 -40 71 C-39.34 71 -38.68 71 -38 71 C-37.7525 70.195625 -37.505 69.39125 -37.25 68.5625 C-34.50505879 60.73941755 -30.75800819 53.37740133 -27 46 C-26.34 46 -25.68 46 -25 46 C-24.896875 45.278125 -24.79375 44.55625 -24.6875 43.8125 C-23.92875343 40.70853676 -22.677335 38.70954115 -21 36 C-19.93762134 33.68982754 -18.97517849 31.34929363 -18 29 C-17.67 28.34 -17.34 27.68 -17 27 C-16.34 27 -15.68 27 -15 27 C-14.71125 26.071875 -14.4225 25.14375 -14.125 24.1875 C-13 21 -13 21 -11 18 C-10.34 18 -9.68 18 -9 18 C-8.79375 17.05125 -8.5875 16.1025 -8.375 15.125 C-6.90314992 9.88220554 -3.87795249 3.87795249 0 0 Z " fill="#714598" transform="translate(106,21)"/>
<path d="M0 0 C0.33 0 0.66 0 1 0 C1 31.68 1 63.36 1 96 C5.29 94.35 9.58 92.7 14 91 C14.18239064 99.62447178 13.55672057 107.73225146 12.25 116.25 C12.07243164 117.45640137 11.89486328 118.66280273 11.71191406 119.90576172 C10.82066732 125.8836935 9.8687393 131.84824455 8.84375 137.8046875 C8.66038086 138.87170898 8.47701172 139.93873047 8.28808594 141.03808594 C7.94088962 143.02989639 7.58537461 145.02028317 7.21972656 147.00878906 C6.28521375 152.30185458 5.89366044 157.27977277 5.99658203 162.65185547 C6.00170234 166.16950981 5.55163199 169.51538087 5.0625 173 C4.88847656 174.27875 4.71445313 175.5575 4.53515625 176.875 C4 180 4 180 3 182 C3.66 182 4.32 182 5 182 C4.67 183.98 4.34 185.96 4 188 C3.01 188.33 2.02 188.66 1 189 C0.82204308 175.68763541 0.6565159 162.37513388 0.5 149.0625 C0.48812275 148.05282669 0.4762455 147.04315338 0.46400833 146.00288391 C0.06282066 111.58472293 -0.08995123 77.17040792 -0.0625 42.75 C-0.06164398 41.66884541 -0.06078796 40.58769081 -0.05990601 39.47377396 C-0.04869755 26.31583173 -0.02890279 13.15791496 0 0 Z " fill="#5E196D" transform="translate(110,16)"/>
<path d="M0 0 C0.99 0.33 1.98 0.66 3 1 C3.6875 3.0625 3.6875 3.0625 4 5 C3.67 5 3.34 5 3 5 C2.80638353 11.73623981 3.53424269 18.15018832 4.5 24.8125 C4.66798096 25.99086426 4.83596191 27.16922852 5.0090332 28.38330078 C7.02289882 41.95951798 9.62782422 55.43151936 12.26953125 68.89770508 C14.68498216 81.34711193 16.5949896 93.51805634 15.6875 106.25 C15.60886719 107.49265625 15.53023437 108.7353125 15.44921875 110.015625 C15 113 15 113 13 115 C13 108.73 13 102.46 13 96 C10.586875 96.99 10.586875 96.99 8.125 98 C3.25 100 3.25 100 1 100 C0.67 67 0.34 34 0 0 Z " fill="#922585" transform="translate(110,12)"/>
<path d="M0 0 C5.38401726 0.6947119 8.60599071 2.60266254 14 5 C14 30.74 14 56.48 14 83 C13.67 83 13.34 83 13 83 C9.76607324 70.34066414 7.1582565 57.78191406 5.39892578 44.83740234 C4.94984632 41.64327655 4.45992995 38.45684507 3.96484375 35.26953125 C2.14994447 23.52343818 0.39837199 11.89140383 0 0 Z " fill="#17072A" transform="translate(95,107)"/>
<path d="M0 0 C0.66 0.33 1.32 0.66 2 1 C1.99666908 2.59489006 1.99666908 2.59489006 1.99327087 4.22200012 C1.96532315 18.08549089 1.94800175 31.94898531 1.9375 45.8125 C1.93664398 46.93464653 1.93578796 48.05679306 1.93490601 49.21294403 C1.90338448 96.10195541 2.32395369 142.97993772 2.96203613 189.86416626 C2.98679588 191.90933345 3 193.95468294 3 196 C1.35 195.67 -0.3 195.34 -2 195 C-1.81566406 194.19304687 -1.63132812 193.38609375 -1.44140625 192.5546875 C-0.90494732 188.23453151 -1.3521416 184.41520441 -1.9375 180.125 C-2.03740234 179.34125 -2.13730469 178.5575 -2.24023438 177.75 C-2.48578947 175.83233162 -2.74182929 173.91601075 -3 172 C-2.34 172.66 -1.68 173.32 -1 174 C-0.9533186 153.1904137 -0.91803012 132.380836 -0.89637566 111.571208 C-0.88605473 101.909352 -0.87197882 92.2475285 -0.84912109 82.58569336 C-0.82921219 74.16630813 -0.81628951 65.74694643 -0.81182301 57.32753831 C-0.80921139 52.86784186 -0.80305604 48.40821274 -0.78853989 43.94853783 C-0.77499543 39.75351806 -0.77077098 35.55859355 -0.77378464 31.363554 C-0.77323307 29.82159152 -0.76923697 28.27962595 -0.76158905 26.73768234 C-0.75167672 24.6366642 -0.75401732 22.53600837 -0.75949097 20.4349823 C-0.75764738 19.25785266 -0.75580379 18.08072302 -0.75390434 16.86792278 C-0.78526251 13.80044592 -0.78526251 13.80044592 -3 11 C-7.28935105 17.79970137 -7.28935105 17.79970137 -10.6875 25.0625 C-11.120625 26.031875 -11.55375 27.00125 -12 28 C-12.99 28.33 -13.98 28.66 -15 29 C-13.39369175 24.75707468 -11.4231838 20.72974893 -9.375 16.6875 C-9.05015625 16.04232422 -8.7253125 15.39714844 -8.390625 14.73242188 C-7.59558044 13.15402459 -6.79804366 11.57688306 -6 10 C-5.34 10 -4.68 10 -4 10 C-3.34 7.36 -2.68 4.72 -2 2 C-1.34 2 -0.68 2 0 2 C0 1.34 0 0.68 0 0 Z " fill="#2C0D41" transform="translate(109,11)"/>
<path d="M0 0 C0.66 0.33 1.32 0.66 2 1 C1.67 34.33 1.34 67.66 1 102 C0.67 102 0.34 102 0 102 C-0.01213028 100.3562867 -0.01213028 100.3562867 -0.02450562 98.67936707 C-0.10191168 88.36417957 -0.18963687 78.04912488 -0.28752708 67.73411083 C-0.33752293 62.43075882 -0.38385267 57.12742705 -0.421875 51.82397461 C-0.45868626 46.70809542 -0.50503485 41.59238423 -0.55806351 36.47664833 C-0.5766296 34.52260592 -0.59172933 32.56852747 -0.60334396 30.61443138 C-0.62016854 27.88234541 -0.64919424 25.15064609 -0.68115234 22.41870117 C-0.68331253 21.60662201 -0.68547272 20.79454285 -0.68769836 19.95785522 C-0.74522471 16.12102706 -0.82170678 14.26743982 -3 11 C-7.28935105 17.79970137 -7.28935105 17.79970137 -10.6875 25.0625 C-11.120625 26.031875 -11.55375 27.00125 -12 28 C-12.99 28.33 -13.98 28.66 -15 29 C-13.39369175 24.75707468 -11.4231838 20.72974893 -9.375 16.6875 C-9.05015625 16.04232422 -8.7253125 15.39714844 -8.390625 14.73242188 C-7.59558044 13.15402459 -6.79804366 11.57688306 -6 10 C-5.34 10 -4.68 10 -4 10 C-3.34 7.36 -2.68 4.72 -2 2 C-1.34 2 -0.68 2 0 2 C0 1.34 0 0.68 0 0 Z " fill="#32104B" transform="translate(109,11)"/>
<path d="M0 0 C1.94824219 0.73461914 1.94824219 0.73461914 4 2 C4.63769531 3.92358398 4.63769531 3.92358398 4.828125 6.24609375 C4.94414063 7.50196289 4.94414063 7.50196289 5.0625 8.78320312 C5.124375 9.65912109 5.18625 10.53503906 5.25 11.4375 C5.32734375 12.30955078 5.4046875 13.18160156 5.484375 14.08007812 C5.77019179 17.40014632 6 20.66639477 6 24 C4.35 23.67 2.7 23.34 1 23 C1.27650391 21.78957031 1.27650391 21.78957031 1.55859375 20.5546875 C2.09505268 16.23453151 1.6478584 12.41520441 1.0625 8.125 C0.96259766 7.34125 0.86269531 6.5575 0.75976562 5.75 C0.51421053 3.83233162 0.25817071 1.91601075 0 0 Z " fill="#2B0D38" transform="translate(106,183)"/>
<path d="M0 0 C3 1 3 1 4.6875 3.9375 C6 7 6 7 6 9 C5.34 9 4.68 9 4 9 C4 8.34 4 7.68 4 7 C3.34 7 2.68 7 2 7 C2.09087891 7.62455078 2.18175781 8.24910156 2.27539062 8.89257812 C2.68939925 11.76091484 3.09475296 14.63041285 3.5 17.5 C3.64308594 18.48226562 3.78617187 19.46453125 3.93359375 20.4765625 C4.71357983 26.04789162 5.160716 31.37493985 5 37 C4.67 37 4.34 37 4 37 C3.32270451 32.52237431 2.66009777 28.04269063 2 23.5625 C1.80921875 22.30244141 1.6184375 21.04238281 1.421875 19.74414062 C0.44828437 13.08547616 -0.23431482 6.72922871 0 0 Z " fill="#B63F92" transform="translate(112,16)"/>
<path d="M0 0 C0.66 0 1.32 0 2 0 C1.67 2.97 1.34 5.94 1 9 C0.34 8.01 -0.32 7.02 -1 6 C-5.28935105 12.79970137 -5.28935105 12.79970137 -8.6875 20.0625 C-9.120625 21.031875 -9.55375 22.00125 -10 23 C-10.99 23.33 -11.98 23.66 -13 24 C-11.39369175 19.75707468 -9.4231838 15.72974893 -7.375 11.6875 C-7.05015625 11.04232422 -6.7253125 10.39714844 -6.390625 9.73242188 C-5.59558044 8.15402459 -4.79804366 6.57688306 -4 5 C-3.34 5 -2.68 5 -2 5 C-1.34 3.35 -0.68 1.7 0 0 Z " fill="#3B1F59" transform="translate(107,16)"/>
<path d="M0 0 C0.99 0.33 1.98 0.66 3 1 C3.6875 3.0625 3.6875 3.0625 4 5 C3.67 5 3.34 5 3 5 C2.67 16.22 2.34 27.44 2 39 C1.67 39 1.34 39 1 39 C0.67 26.13 0.34 13.26 0 0 Z " fill="#8F2981" transform="translate(110,12)"/>
<path d="M0 0 C0.33 0 0.66 0 1 0 C1.62596368 9.49378254 -0.02352945 17.01743708 -3 26 C-3.33 26 -3.66 26 -4 26 C-3.67 22.37 -3.34 18.74 -3 15 C-2.34 15 -1.68 15 -1 15 C-1.01160156 14.16855469 -1.02320312 13.33710937 -1.03515625 12.48046875 C-1.04869141 10.85044922 -1.04869141 10.85044922 -1.0625 9.1875 C-1.07410156 8.10855469 -1.08570312 7.02960937 -1.09765625 5.91796875 C-1 3 -1 3 0 0 Z " fill="#44236B" transform="translate(106,25)"/>
<path d="M0 0 C2.18994248 3.28491373 2.35277339 4.83095639 2.625 8.6875 C2.69976562 9.68136719 2.77453125 10.67523438 2.8515625 11.69921875 C2.90054688 12.45847656 2.94953125 13.21773437 3 14 C0.1324997 11.30165 -1.4497184 8.64316175 -3 5 C-2.67 4.34 -2.34 3.68 -2 3 C-1.67 3.33 -1.34 3.66 -1 4 C-0.67 2.68 -0.34 1.36 0 0 Z " fill="#C43C91" transform="translate(106,191)"/>
<path d="M0 0 C0.33 0 0.66 0 1 0 C1.125 7.75 1.125 7.75 0 10 C0.66 10 1.32 10 2 10 C1.34 11.65 0.68 13.3 0 15 C-0.33 15 -0.66 15 -1 15 C-1.10251672 9.87416389 -1.03590199 5.05002222 0 0 Z " fill="#5E2587" transform="translate(113,188)"/>
<path d="M0 0 C0.66 0 1.32 0 2 0 C1.67 2.97 1.34 5.94 1 9 C0.34 8.01 -0.32 7.02 -1 6 C-1.99 6.495 -1.99 6.495 -3 7 C-1.125 1.125 -1.125 1.125 0 0 Z " fill="#472B72" transform="translate(107,16)"/>
<path d="M0 0 C0.66 0.33 1.32 0.66 2 1 C1.67 4.3 1.34 7.6 1 11 C0.34 11 -0.32 11 -1 11 C-0.67 9.02 -0.34 7.04 0 5 C-0.66 5 -1.32 5 -2 5 C-2 4.01 -2 3.02 -2 2 C-1.34 2 -0.68 2 0 2 C0 1.34 0 0.68 0 0 Z " fill="#341B55" transform="translate(109,11)"/>
<path d="M0 0 C0.99 0.33 1.98 0.66 3 1 C3.875 2.8125 3.875 2.8125 4 5 C2.5625 7.25 2.5625 7.25 1 9 C0.67 6.03 0.34 3.06 0 0 Z " fill="#8D2E76" transform="translate(110,12)"/>
<path d="M0 0 C0.33 0 0.66 0 1 0 C1.33 3.63 1.66 7.26 2 11 C-1 8 -1 8 -1.07421875 5.95703125 C-0.71614583 3.97135417 -0.35807292 1.98567708 0 0 Z " fill="#9C2F70" transform="translate(107,194)"/>
</svg>
